<svg width="1025" height="408" viewBox="0 0 1025 408" fill="none" xmlns="http://www.w3.org/2000/svg">
<path d="M300.905 350.316L148.236 196.195L93.1403 250.185L191.527 349.508L300.905 350.316Z" fill="#848484"/>
<path d="M169.773 56.9506L38.9211 185.176L38.0826 297.364L282.569 57.7847L169.773 56.9506Z" fill="#0057B8"/>
<path d="M959.119 190.507L950.098 170.5H887.526L878.505 190.507H856.035L918.197 56.1758H919.427L981.589 190.507H959.119ZM895.563 152.78H942.061L918.853 101.334L895.563 152.78Z" fill="#0057B8"/>
<path d="M844.842 55.9902H846.4V190.485H825.652V117.48L781.778 188.28H781.614L737.658 117.399V190.485H716.91V55.9902H718.468L781.696 151.696L844.842 55.9902Z" fill="#0057B8"/>
<path d="M684.799 190.507L675.778 170.5H613.206L604.185 190.507H581.715L643.877 56.1758H645.107L707.269 190.507H684.799ZM621.243 152.78H667.741L644.533 101.334L621.243 152.78Z" fill="#0057B8"/>
<path d="M597.419 58.8516V79.3483H561.992V190.488H541.162V79.3483H505.734V58.8516H597.419Z" fill="#0057B8"/>
<path d="M498.9 190.507L489.879 170.5H427.307L418.287 190.507H395.816L457.978 56.1758H459.208L521.37 190.507H498.9ZM435.344 152.78H481.843L458.634 101.334L435.344 152.78Z" fill="#0057B8"/>
<path d="M397.641 190.488H372.3L323.424 126.793V190.488H302.758V58.8516H323.424V121.893L368.856 58.8516H392.966L346.058 123.445L397.641 190.488Z" fill="#0057B8"/>
<path d="M982.865 305.025C983.027 306.43 983.244 308.754 983.244 311.239C983.244 335.663 964.361 352.359 941.787 352.359C916.663 352.359 896.477 332.258 896.477 307.673C896.477 283.088 916.717 262.879 941.407 262.879C952.151 262.933 965.229 268.336 973.097 275.955L967.562 284.114C960.779 277.414 950.143 272.713 941.353 272.713C922.903 272.713 906.515 287.951 906.515 307.673C906.515 326.801 921.981 342.417 942.167 342.417C959.26 342.417 972.717 331.016 972.717 315.616C972.717 314.968 972.717 314.373 972.663 313.887H941.298V305.025H982.865Z" fill="#848484"/>
<path d="M859.434 263.846H869.31V352.515H868.822L808.86 286.216V351.272H798.984V262.711H799.527L859.434 328.956V263.846Z" fill="#848484"/>
<path d="M757.324 351.169V264.066H767.2V351.169H757.324Z" fill="#848484"/>
<path d="M715.673 263.846H725.549V352.515H725.06L665.099 286.216V351.272H655.223V262.711H655.765L715.673 328.956V263.846Z" fill="#848484"/>
<path d="M631.736 351.169H619.526L595.107 317.182H578.774V351.169H568.898L568.844 264.066H594.673C610.898 264.066 624.139 276.494 624.139 291.84C624.139 303.133 616.379 312.859 605.743 316.047L631.736 351.169ZM578.72 308.86L594.999 308.915C605.418 308.915 613.991 301.026 613.991 291.624C613.991 281.573 605.309 273.793 594.999 273.793H578.72V308.86Z" fill="#848484"/>
<path d="M534.17 351.164L527.767 336.845H480.015L473.612 351.164H462.922L503.348 262.711H504.434L544.914 351.164H534.17ZM483.868 328.308H523.969L503.945 283.514L483.868 328.308Z" fill="#848484"/>
<path d="M441.747 273.738H400.235V301.296H436.212V311.13H400.235V341.389H441.747V351.169H390.359V264.066H441.747V273.738Z" fill="#848484"/>
<path d="M322.083 341.389H364.951V351.169H312.207V264.066H322.083V341.389Z" fill="#848484"/>
<line x1="302.281" y1="224.279" x2="983.232" y2="224.279" stroke="#848484" stroke-width="4.33596"/>
</svg>
